<?xml version="1.0" encoding="UTF-8" standalone="no"?><!DOCTYPE svg PUBLIC "-//W3C//DTD SVG 1.1//EN" "http://www.w3.org/Graphics/SVG/1.1/DTD/svg11.dtd"><svg width="100%" height="100%" viewBox="0 0 66 66" version="1.1" xmlns="http://www.w3.org/2000/svg" xmlns:xlink="http://www.w3.org/1999/xlink" xml:space="preserve" style="fill-rule:evenodd;clip-rule:evenodd;stroke-linecap:round;stroke-linejoin:round;stroke-miterlimit:1.41421;"><clipPath id="_clip1"><rect id="frame" x="1" y="1" width="64" height="64"/></clipPath><g clip-path="url(#_clip1)"><g id="_1px"><g id="vert-1px"><path d="M2,0.25l0,65" style="fill:none;stroke-width:0.01px;stroke:#888;"/><path d="M1,0.25l0,65" style="fill:none;stroke-width:0.01px;stroke:#888;"/><path d="M3,0.25l0,65" style="fill:none;stroke-width:0.01px;stroke:#888;"/><path d="M4,0.25l0,65" style="fill:none;stroke-width:0.01px;stroke:#888;"/><path d="M5,0.25l0,65" style="fill:none;stroke-width:0.01px;stroke:#888;"/><path d="M6,0.25l0,65" style="fill:none;stroke-width:0.01px;stroke:#888;"/><path d="M7,0.25l0,65" style="fill:none;stroke-width:0.01px;stroke:#888;"/><path d="M8,0.25l0,65" style="fill:none;stroke-width:0.01px;stroke:#888;"/><path d="M9,0.25l0,65" style="fill:none;stroke-width:0.01px;stroke:#888;"/><path d="M10,0.25l0,65" style="fill:none;stroke-width:0.01px;stroke:#888;"/><path d="M11,0.25l0,65" style="fill:none;stroke-width:0.01px;stroke:#888;"/><path d="M12,0.25l0,65" style="fill:none;stroke-width:0.01px;stroke:#888;"/><path d="M13,0.25l0,65" style="fill:none;stroke-width:0.01px;stroke:#888;"/><path d="M14,0.25l0,65" style="fill:none;stroke-width:0.01px;stroke:#888;"/><path d="M15,0.25l0,65" style="fill:none;stroke-width:0.01px;stroke:#888;"/><path d="M16,0.25l0,65" style="fill:none;stroke-width:0.01px;stroke:#888;"/><path d="M17,0.25l0,65" style="fill:none;stroke-width:0.01px;stroke:#888;"/><path d="M18,0.25l0,65" style="fill:none;stroke-width:0.01px;stroke:#888;"/><path d="M19,0.25l0,65" style="fill:none;stroke-width:0.01px;stroke:#888;"/><path d="M20,0.25l0,65" style="fill:none;stroke-width:0.01px;stroke:#888;"/><path d="M21,0.25l0,65" style="fill:none;stroke-width:0.01px;stroke:#888;"/><path d="M22,0.25l0,65" style="fill:none;stroke-width:0.01px;stroke:#888;"/><path d="M23,0.25l0,65" style="fill:none;stroke-width:0.01px;stroke:#888;"/><path d="M24,0.25l0,65" style="fill:none;stroke-width:0.01px;stroke:#888;"/><path d="M25,0.25l0,65" style="fill:none;stroke-width:0.01px;stroke:#888;"/><path d="M26,0.25l0,65" style="fill:none;stroke-width:0.01px;stroke:#888;"/><path d="M27,0.25l0,65" style="fill:none;stroke-width:0.01px;stroke:#888;"/><path d="M28,0.25l0,65" style="fill:none;stroke-width:0.01px;stroke:#888;"/><path d="M29,0.25l0,65" style="fill:none;stroke-width:0.01px;stroke:#888;"/><path d="M30,0.25l0,65" style="fill:none;stroke-width:0.01px;stroke:#888;"/><path d="M31,0.25l0,65" style="fill:none;stroke-width:0.01px;stroke:#888;"/><path d="M32,0.25l0,65" style="fill:none;stroke-width:0.01px;stroke:#888;"/><path d="M33,0.25l0,65" style="fill:none;stroke-width:0.01px;stroke:#888;"/><path d="M34,0.25l0,65" style="fill:none;stroke-width:0.01px;stroke:#888;"/><path d="M35,0.25l0,65" style="fill:none;stroke-width:0.01px;stroke:#888;"/><path d="M36,0.25l0,65" style="fill:none;stroke-width:0.01px;stroke:#888;"/><path d="M37,0.25l0,65" style="fill:none;stroke-width:0.01px;stroke:#888;"/><path d="M38,0.25l0,65" style="fill:none;stroke-width:0.01px;stroke:#888;"/><path d="M39,0.25l0,65" style="fill:none;stroke-width:0.01px;stroke:#888;"/><path d="M40,0.25l0,65" style="fill:none;stroke-width:0.01px;stroke:#888;"/><path d="M41,0.25l0,65" style="fill:none;stroke-width:0.01px;stroke:#888;"/><path d="M42,0.25l0,65" style="fill:none;stroke-width:0.01px;stroke:#888;"/><path d="M43,0.25l0,65" style="fill:none;stroke-width:0.01px;stroke:#888;"/><path d="M44,0.25l0,65" style="fill:none;stroke-width:0.01px;stroke:#888;"/><path d="M45,0.25l0,65" style="fill:none;stroke-width:0.01px;stroke:#888;"/><path d="M46,0.25l0,65" style="fill:none;stroke-width:0.01px;stroke:#888;"/><path d="M47,0.25l0,65" style="fill:none;stroke-width:0.01px;stroke:#888;"/><path d="M48,0.25l0,65" style="fill:none;stroke-width:0.01px;stroke:#888;"/><path d="M49,0.25l0,65" style="fill:none;stroke-width:0.01px;stroke:#888;"/><path d="M50,0.25l0,65" style="fill:none;stroke-width:0.01px;stroke:#888;"/><path d="M51,0.25l0,65" style="fill:none;stroke-width:0.01px;stroke:#888;"/><path d="M52,0.25l0,65" style="fill:none;stroke-width:0.01px;stroke:#888;"/><path d="M53,0.25l0,65" style="fill:none;stroke-width:0.01px;stroke:#888;"/><path d="M54,0.25l0,65" style="fill:none;stroke-width:0.01px;stroke:#888;"/><path d="M55,0.25l0,65" style="fill:none;stroke-width:0.01px;stroke:#888;"/><path d="M56,0.25l0,65" style="fill:none;stroke-width:0.01px;stroke:#888;"/><path d="M57,0.25l0,65" style="fill:none;stroke-width:0.01px;stroke:#888;"/><path d="M58,0.25l0,65" style="fill:none;stroke-width:0.01px;stroke:#888;"/><path d="M59,0.25l0,65" style="fill:none;stroke-width:0.01px;stroke:#888;"/><path d="M60,0.25l0,65" style="fill:none;stroke-width:0.01px;stroke:#888;"/><path d="M61,0.25l0,65" style="fill:none;stroke-width:0.01px;stroke:#888;"/><path d="M62,0.25l0,65" style="fill:none;stroke-width:0.01px;stroke:#888;"/><path d="M63,0.25l0,65" style="fill:none;stroke-width:0.01px;stroke:#888;"/><path d="M64,0.25l0,65" style="fill:none;stroke-width:0.01px;stroke:#888;"/><path d="M65,0.25l0,65" style="fill:none;stroke-width:0.01px;stroke:#888;"/></g><g id="horiz-1px"><path d="M0.5,64l65,0" style="fill:none;stroke-width:0.01px;stroke:#888;"/><path d="M0.5,65l65,0" style="fill:none;stroke-width:0.01px;stroke:#888;"/><path d="M0.5,63l65,0" style="fill:none;stroke-width:0.01px;stroke:#888;"/><path d="M0.5,62l65,0" style="fill:none;stroke-width:0.01px;stroke:#888;"/><path d="M0.5,61l65,0" style="fill:none;stroke-width:0.01px;stroke:#888;"/><path d="M0.5,60l65,0" style="fill:none;stroke-width:0.01px;stroke:#888;"/><path d="M0.5,59l65,0" style="fill:none;stroke-width:0.01px;stroke:#888;"/><path d="M0.5,58l65,0" style="fill:none;stroke-width:0.01px;stroke:#888;"/><path d="M0.5,57l65,0" style="fill:none;stroke-width:0.01px;stroke:#888;"/><path d="M0.5,56l65,0" style="fill:none;stroke-width:0.01px;stroke:#888;"/><path d="M0.5,55l65,0" style="fill:none;stroke-width:0.01px;stroke:#888;"/><path d="M0.5,54l65,0" style="fill:none;stroke-width:0.01px;stroke:#888;"/><path d="M0.5,53l65,0" style="fill:none;stroke-width:0.01px;stroke:#888;"/><path d="M0.5,52l65,0" style="fill:none;stroke-width:0.01px;stroke:#888;"/><path d="M0.5,51l65,0" style="fill:none;stroke-width:0.01px;stroke:#888;"/><path d="M0.5,50l65,0" style="fill:none;stroke-width:0.01px;stroke:#888;"/><path d="M0.5,49l65,0" style="fill:none;stroke-width:0.01px;stroke:#888;"/><path d="M0.5,48l65,0" style="fill:none;stroke-width:0.01px;stroke:#888;"/><path d="M0.5,47l65,0" style="fill:none;stroke-width:0.01px;stroke:#888;"/><path d="M0.5,46l65,0" style="fill:none;stroke-width:0.01px;stroke:#888;"/><path d="M0.5,45l65,0" style="fill:none;stroke-width:0.01px;stroke:#888;"/><path d="M0.5,44l65,0" style="fill:none;stroke-width:0.01px;stroke:#888;"/><path d="M0.5,43l65,0" style="fill:none;stroke-width:0.01px;stroke:#888;"/><path d="M0.5,42l65,0" style="fill:none;stroke-width:0.01px;stroke:#888;"/><path d="M0.5,41l65,0" style="fill:none;stroke-width:0.01px;stroke:#888;"/><path d="M0.5,40l65,0" style="fill:none;stroke-width:0.01px;stroke:#888;"/><path d="M0.5,39l65,0" style="fill:none;stroke-width:0.01px;stroke:#888;"/><path d="M0.5,38l65,0" style="fill:none;stroke-width:0.01px;stroke:#888;"/><path d="M0.5,37l65,0" style="fill:none;stroke-width:0.01px;stroke:#888;"/><path d="M0.5,36l65,0" style="fill:none;stroke-width:0.01px;stroke:#888;"/><path d="M0.5,35l65,0" style="fill:none;stroke-width:0.01px;stroke:#888;"/><path d="M0.5,34l65,0" style="fill:none;stroke-width:0.01px;stroke:#888;"/><path d="M0.5,33l65,0" style="fill:none;stroke-width:0.01px;stroke:#888;"/><path d="M0.5,32l65,0" style="fill:none;stroke-width:0.01px;stroke:#888;"/><path d="M0.5,31l65,0" style="fill:none;stroke-width:0.01px;stroke:#888;"/><path d="M0.5,30l65,0" style="fill:none;stroke-width:0.01px;stroke:#888;"/><path d="M0.5,29l65,0" style="fill:none;stroke-width:0.01px;stroke:#888;"/><path d="M0.5,28l65,0" style="fill:none;stroke-width:0.01px;stroke:#888;"/><path d="M0.5,27l65,0" style="fill:none;stroke-width:0.01px;stroke:#888;"/><path d="M0.5,26l65,0" style="fill:none;stroke-width:0.01px;stroke:#888;"/><path d="M0.5,25l65,0" style="fill:none;stroke-width:0.01px;stroke:#888;"/><path d="M0.5,24l65,0" style="fill:none;stroke-width:0.01px;stroke:#888;"/><path d="M0.5,23l65,0" style="fill:none;stroke-width:0.01px;stroke:#888;"/><path d="M0.5,22l65,0" style="fill:none;stroke-width:0.01px;stroke:#888;"/><path d="M0.5,21l65,0" style="fill:none;stroke-width:0.01px;stroke:#888;"/><path d="M0.5,20l65,0" style="fill:none;stroke-width:0.01px;stroke:#888;"/><path d="M0.5,19l65,0" style="fill:none;stroke-width:0.01px;stroke:#888;"/><path d="M0.5,18l65,0" style="fill:none;stroke-width:0.01px;stroke:#888;"/><path d="M0.5,17l65,0" style="fill:none;stroke-width:0.01px;stroke:#888;"/><path d="M0.5,16l65,0" style="fill:none;stroke-width:0.01px;stroke:#888;"/><path d="M0.5,15l65,0" style="fill:none;stroke-width:0.01px;stroke:#888;"/><path d="M0.5,14l65,0" style="fill:none;stroke-width:0.01px;stroke:#888;"/><path d="M0.5,13l65,0" style="fill:none;stroke-width:0.01px;stroke:#888;"/><path d="M0.5,12l65,0" style="fill:none;stroke-width:0.01px;stroke:#888;"/><path d="M0.5,11l65,0" style="fill:none;stroke-width:0.01px;stroke:#888;"/><path d="M0.5,10l65,0" style="fill:none;stroke-width:0.01px;stroke:#888;"/><path d="M0.5,9l65,0" style="fill:none;stroke-width:0.01px;stroke:#888;"/><path d="M0.5,8l65,0" style="fill:none;stroke-width:0.01px;stroke:#888;"/><path d="M0.5,7l65,0" style="fill:none;stroke-width:0.01px;stroke:#888;"/><path d="M0.5,6l65,0" style="fill:none;stroke-width:0.01px;stroke:#888;"/><path d="M0.5,5l65,0" style="fill:none;stroke-width:0.01px;stroke:#888;"/><path d="M0.5,4l65,0" style="fill:none;stroke-width:0.01px;stroke:#888;"/><path d="M0.5,3l65,0" style="fill:none;stroke-width:0.01px;stroke:#888;"/><path d="M0.5,2l65,0" style="fill:none;stroke-width:0.01px;stroke:#888;"/><path d="M0.5,1l65,0" style="fill:none;stroke-width:0.01px;stroke:#888;"/></g></g><g id="_4px"><g><path d="M0.5,61l65,0" style="fill:none;stroke-width:0.05px;stroke:#666;"/><path d="M0.5,29l65,0" style="fill:none;stroke-width:0.05px;stroke:#666;"/><path d="M0.5,45l65,0" style="fill:none;stroke-width:0.05px;stroke:#666;"/><path d="M0.5,13l65,0" style="fill:none;stroke-width:0.05px;stroke:#666;"/><path d="M0.5,53l65,0" style="fill:none;stroke-width:0.05px;stroke:#666;"/><path d="M0.5,21l65,0" style="fill:none;stroke-width:0.05px;stroke:#666;"/><path d="M0.5,37l65,0" style="fill:none;stroke-width:0.05px;stroke:#666;"/><path d="M0.5,5l65,0" style="fill:none;stroke-width:0.05px;stroke:#666;"/></g><path d="M5,0.5l0,65" style="fill:none;stroke-width:0.05px;stroke:#666;"/><path d="M37,0.5l0,65" style="fill:none;stroke-width:0.05px;stroke:#666;"/><path d="M21,0.5l0,65" style="fill:none;stroke-width:0.05px;stroke:#666;"/><path d="M53,0.5l0,65" style="fill:none;stroke-width:0.05px;stroke:#666;"/><path d="M13,0.5l0,65" style="fill:none;stroke-width:0.05px;stroke:#666;"/><path d="M45,0.5l0,65" style="fill:none;stroke-width:0.05px;stroke:#666;"/><path d="M29,0.5l0,65" style="fill:none;stroke-width:0.05px;stroke:#666;"/><path d="M61,0.5l0,65" style="fill:none;stroke-width:0.05px;stroke:#666;"/></g><g id="_8px"><g id="horiz-8px"><path d="M0.5,57l65,0" style="fill:none;stroke-width:0.13px;stroke:#555;"/><path d="M0.5,49l65,0" style="fill:none;stroke-width:0.13px;stroke:#555;"/><path d="M0.5,33l65,0" style="fill:none;stroke-width:0.13px;stroke:#555;"/><path d="M0.5,9l65,0" style="fill:none;stroke-width:0.13px;stroke:#555;"/><path d="M0.5,41l65,0" style="fill:none;stroke-width:0.13px;stroke:#555;"/><path d="M0.5,17l65,0" style="fill:none;stroke-width:0.13px;stroke:#555;"/><path d="M0.5,25l65,0" style="fill:none;stroke-width:0.13px;stroke:#555;"/></g><g id="vert-8px"><path d="M9,0.5l0,65" style="fill:none;stroke-width:0.13px;stroke:#555;"/><path d="M17,0.5l0,65" style="fill:none;stroke-width:0.13px;stroke:#555;"/><path d="M33,0.5l0,65" style="fill:none;stroke-width:0.13px;stroke:#555;"/><path d="M57,0.5l0,65" style="fill:none;stroke-width:0.13px;stroke:#555;"/><path d="M25,0.5l0,65" style="fill:none;stroke-width:0.13px;stroke:#555;"/><path d="M49,0.5l0,65" style="fill:none;stroke-width:0.13px;stroke:#555;"/><path d="M41,0.5l0,65" style="fill:none;stroke-width:0.13px;stroke:#555;"/></g></g></g><rect x="1" y="1" width="64" height="64" style="fill:none;stroke-width:0.25px;stroke-linecap:square;stroke-linejoin:miter;stroke-miterlimit:4;stroke:#000;"/></svg>