<?xml version="1.0" encoding="UTF-8" standalone="no"?><!DOCTYPE svg PUBLIC "-//W3C//DTD SVG 1.1//EN" "http://www.w3.org/Graphics/SVG/1.1/DTD/svg11.dtd"><svg width="100%" height="100%" viewBox="0 0 64 64" version="1.1" xmlns="http://www.w3.org/2000/svg" xmlns:xlink="http://www.w3.org/1999/xlink" xml:space="preserve" style="fill-rule:evenodd;clip-rule:evenodd;stroke-linejoin:round;stroke-miterlimit:1.41421;"><rect id="map-bg" x="0" y="0" width="64" height="64" style="fill:#47b8e0;"/><path d="M28,24.5l0,1.5l-1,0.5l-2,0l1,-1.5l2,-0.5Z" style="fill:#fffff5;"/><path d="M19,13l0,1l1,0l0,-1.5l-1,0.5Z" style="fill:#fffff5;"/><path d="M11,52l2,0l2,-2l2,-1.5l3,-0.5l1,-1l1,0l1,-1l1,-1l0,-1l1,-1l0,-2l-0.5,-1l0,-4l0.5,-1l1,0l1,-1l0,-1l-1,-1l0,-2l-2,-2l-1,1l-1,0l-1,-1l-2,0l0,1l-1,0l0,-1l-2,0l-2,2l0,2l1,0l1,0.5l-1,0.5l-2,2l-2,0l0,-1l-2,0l-2,2l1,0l0,1l1,0l0,3l2,0l0,2l-1,1l0,1l1,0l0,1l-1,0l-2,2l-1,0l0,1l4,4Z" style="fill:#fffff5;"/><clipPath id="_clip1"><path d="M11,52l2,0l2,-2l2,-1.5l3,-0.5l1,-1l1,0l1,-1l1,-1l0,-1l1,-1l0,-2l-0.5,-1l0,-4l0.5,-1l1,0l1,-1l0,-1l-1,-1l0,-2l-2,-2l-1,1l-1,0l-1,-1l-2,0l0,1l-1,0l0,-1l-2,0l-2,2l0,2l1,0l1,0.5l-1,0.5l-2,2l-2,0l0,-1l-2,0l-2,2l1,0l0,1l1,0l0,3l2,0l0,2l-1,1l0,1l1,0l0,1l-1,0l-2,2l-1,0l0,1l4,4Z"/></clipPath><g clip-path="url(#_clip1)"><path d="M21,28l-1,1l-0.5,0.5l0,2l-2,2l0,1l-1,1l2.5,2.5l1,-1l0,-0.5l0.5,-1l0.5,1l0,0.5l0.5,0.5l4.5,0" style="fill:none;stroke-width:1px;stroke:#ffc952;"/></g><path d="M32,33l0,2l-2,0l0,-1l1,0l0,-1l1,0Z" style="fill:#fffff5;"/><rect x="38" y="1" width="1" height="1" style="fill:#fffff5;"/><path d="M36,3l0,2l2,0l0,-1l-1,-1l-1,0Z" style="fill:#fffff5;"/><path d="M24,7l-1,0l-1,1l-1,0l-1,1l1,1l0,1l1,0l1,-1l0,-1l1,0l1,-1l-1,-1Z" style="fill:#fffff5;"/><path d="M22,13l1,0l0.5,-1l1.5,3l0,2l-1,0l0,-1l-1,-1l-1,0l-0.5,-1l0.5,-1Z" style="fill:#fffff5;"/><rect x="25" y="23" width="1" height="1" style="fill:#fffff5;"/><rect x="23" y="24" width="1" height="1" style="fill:#fffff5;"/><rect x="24" y="21" width="1" height="1" style="fill:#fffff5;"/><rect x="19" y="15.5" width="1" height="0.5" style="fill:#fffff5;"/><rect x="22" y="18" width="1" height="2" style="fill:#fffff5;"/><path d="M28,6l9,0l0,2l-1,1l-3,1l0,2l-1,1l5,0l1,-1l1,0l0.5,-1l0.5,1l1,0l0,1l1,0.5l-1,0.5l0,1l-1,2l0,1l-1,1l-2,0l0,1l-1,0l-1,0.5l1,0.5l1,0l0,1l-2,0l0,1l5,0l3,3l0,2l1,1l0,1l2,2l0,1l-3,0l0,1l2,0l1,1l2,0l0,2l2,2l1,0.5l-1,0.5l0,1l-1,0l0,2l2,0l1,-1l2,0l0.5,-1l1.5,1l0,1l1,1l0,1l0.5,0.5l-0.5,0.5l0,1l-1,0l0,1l-1,0l-1,1l-1,0l-1,1l-0.5,1l0.5,1l2,1l0,1l-1,1l-1,1l-2,0l-1,-1l-2,0l-1,1l-2,0l-1,1l-2,0l-1,-1l-1,1l-1,1l-1,2l-1,0l-8,0l-1,1l-1,-1l1,-1l2,-1l1,-1l1,-2l1,-1l1,-1l5,0l0,-2l-2,0l-1,0.5l-1,-0.5l-1,0l-1,-1l-5,0l2,-2l2,-1l2,-1l-1,-2l-2,0l0,-1l3,-3l1,0l1,1l2,0l0,-1l1,-1l-1,0l0,-1l1,0l0,-1l0,-2l-2,0l0,-1l-1,0l0,-2l1,-1l1,-1l-4,0l-1,1l-1,0l-1,-1l0,-2l0,-6l-1,0l-1,1l-1,0l0,-2l1,0l0,-2l-1,0l0,1l-2,0l0,-2l1,0l0,-6l1,0l1,-1l0,-1l-1,0l0,-1l1,0l0,-3" style="fill:#fffff5;"/><clipPath id="_clip2"><path d="M28,6l9,0l0,2l-1,1l-3,1l0,2l-1,1l5,0l1,-1l1,0l0.5,-1l0.5,1l1,0l0,1l1,0.5l-1,0.5l0,1l-1,2l0,1l-1,1l-2,0l0,1l-1,0l-1,0.5l1,0.5l1,0l0,1l-2,0l0,1l5,0l3,3l0,2l1,1l0,1l2,2l0,1l-3,0l0,1l2,0l1,1l2,0l0,2l2,2l1,0.5l-1,0.5l0,1l-1,0l0,2l2,0l1,-1l2,0l0.5,-1l1.5,1l0,1l1,1l0,1l0.5,0.5l-0.5,0.5l0,1l-1,0l0,1l-1,0l-1,1l-1,0l-1,1l-0.5,1l0.5,1l2,1l0,1l-1,1l-1,1l-2,0l-1,-1l-2,0l-1,1l-2,0l-1,1l-2,0l-1,-1l-1,1l-1,1l-1,2l-1,0l-8,0l-1,1l-1,-1l1,-1l2,-1l1,-1l1,-2l1,-1l1,-1l5,0l0,-2l-2,0l-1,0.5l-1,-0.5l-1,0l-1,-1l-5,0l2,-2l2,-1l2,-1l-1,-2l-2,0l0,-1l3,-3l1,0l1,1l2,0l0,-1l1,-1l-1,0l0,-1l1,0l0,-1l0,-2l-2,0l0,-1l-1,0l0,-2l1,-1l1,-1l-4,0l-1,1l-1,0l-1,-1l0,-2l0,-6l-1,0l-1,1l-1,0l0,-2l1,0l0,-2l-1,0l0,1l-2,0l0,-2l1,0l0,-6l1,0l1,-1l0,-1l-1,0l0,-1l1,0l0,-3"/></clipPath><g clip-path="url(#_clip2)"><path d="M37,30l2.5,-5l0,-2" style="fill:none;stroke-width:1px;stroke:#ffc952;"/><path d="M37.5,51.5l1,-1l0,-1l-2,-2l0,-4l1.5,-1.5l-1.5,-1.5" style="fill:none;stroke-width:1px;stroke:#ffc952;"/></g></svg>